<svg width="24" height="24" fill="none" xmlns="http://www.w3.org/2000/svg"><path d="m21.4073 19.7527-4.4104-4.4105A8.14783 8.14783 0 0 0 18.63 10.44c0-4.51594-3.6741-8.19-8.19-8.19-4.51594 0-8.19 3.67406-8.19 8.19 0 4.5159 3.67406 8.19 8.19 8.19a8.14783 8.14783 0 0 0 4.9022-1.6331l4.4105 4.4104c.2232.1996.5144.3062.8137.2978a1.1721 1.1721 0 0 0 .7959-.3428 1.1721 1.1721 0 0 0 .3428-.7959 1.17147 1.17147 0 0 0-.2978-.8137ZM4.59 10.44a5.85002 5.85002 0 0 1 11.5876-1.14128 5.84995 5.84995 0 0 1-.3329 3.37998 5.85056 5.85056 0 0 1-2.1546 2.6254 5.85008 5.85008 0 0 1-3.2501.9859c-1.55094-.0019-3.03783-.6188-4.13452-1.7155C5.2088 13.4778 4.59186 11.9909 4.59 10.44Z" fill="#000"/></svg>